<mxfile>
    <diagram id="4Qe4c8zQcIO2SZOtXmS8" name="Page-1">
        <mxGraphModel dx="1201" dy="598" grid="0" gridSize="10" guides="1" tooltips="1" connect="1" arrows="1" fold="1" page="1" pageScale="1" pageWidth="1654" pageHeight="2336" background="#ffffff" math="0" shadow="0">
            <root>
                <mxCell id="0"/>
                <mxCell id="1" parent="0"/>
                <mxCell id="73" style="edgeStyle=orthogonalEdgeStyle;rounded=0;orthogonalLoop=1;jettySize=auto;html=1;entryX=0;entryY=0;entryDx=0;entryDy=0;labelBackgroundColor=none;strokeColor=#007FFF;strokeWidth=2;fillColor=#FF0000;fontSize=16;fontColor=#007FFF;" parent="1" source="2" target="17" edge="1">
                    <mxGeometry relative="1" as="geometry">
                        <Array as="points">
                            <mxPoint x="69" y="202"/>
                            <mxPoint x="69" y="345"/>
                        </Array>
                    </mxGeometry>
                </mxCell>
                <mxCell id="74" value="主动关闭" style="edgeLabel;html=1;align=center;verticalAlign=middle;resizable=0;points=[];fontSize=16;fontColor=#007FFF;labelBackgroundColor=none;" parent="73" vertex="1" connectable="0">
                    <mxGeometry x="-0.1407" relative="1" as="geometry">
                        <mxPoint x="39" y="76" as="offset"/>
                    </mxGeometry>
                </mxCell>
                <mxCell id="2" value="" style="image;html=1;image=img/lib/clip_art/computers/Workstation_128x128.png;fontColor=#007FFF;labelBackgroundColor=none;" parent="1" vertex="1">
                    <mxGeometry x="151" y="162" width="80" height="80" as="geometry"/>
                </mxCell>
                <mxCell id="3" value="&lt;font style=&quot;font-size: 14px&quot;&gt;客户&lt;br&gt;A&lt;/font&gt;" style="text;html=1;align=center;verticalAlign=middle;resizable=0;points=[];autosize=1;fontColor=#007FFF;labelBackgroundColor=none;" parent="1" vertex="1">
                    <mxGeometry x="149" y="123" width="38" height="34" as="geometry"/>
                </mxCell>
                <mxCell id="4" value="" style="endArrow=none;dashed=1;html=1;fontColor=#007FFF;labelBackgroundColor=none;strokeColor=#007FFF;" parent="1" edge="1">
                    <mxGeometry width="50" height="50" relative="1" as="geometry">
                        <mxPoint x="151" y="253" as="sourcePoint"/>
                        <mxPoint x="543" y="253" as="targetPoint"/>
                        <Array as="points">
                            <mxPoint x="349" y="253"/>
                            <mxPoint x="398" y="253"/>
                        </Array>
                    </mxGeometry>
                </mxCell>
                <mxCell id="75" style="edgeStyle=orthogonalEdgeStyle;rounded=0;orthogonalLoop=1;jettySize=auto;html=1;labelBackgroundColor=none;strokeColor=#007FFF;strokeWidth=2;fillColor=#FF0000;fontSize=16;fontColor=#007FFF;entryX=1;entryY=1;entryDx=0;entryDy=0;" parent="1" edge="1">
                    <mxGeometry relative="1" as="geometry">
                        <mxPoint x="546" y="481" as="targetPoint"/>
                        <mxPoint x="546" y="196" as="sourcePoint"/>
                        <Array as="points">
                            <mxPoint x="634" y="196"/>
                            <mxPoint x="634" y="481"/>
                        </Array>
                    </mxGeometry>
                </mxCell>
                <mxCell id="76" value="被动关闭" style="edgeLabel;html=1;align=center;verticalAlign=middle;resizable=0;points=[];fontSize=16;fontColor=#007FFF;labelBackgroundColor=none;" parent="75" vertex="1" connectable="0">
                    <mxGeometry x="0.3068" relative="1" as="geometry">
                        <mxPoint x="-44" y="55" as="offset"/>
                    </mxGeometry>
                </mxCell>
                <mxCell id="7" value="" style="endArrow=none;dashed=1;html=1;fontColor=#007FFF;labelBackgroundColor=none;strokeColor=#007FFF;" parent="1" edge="1">
                    <mxGeometry width="50" height="50" relative="1" as="geometry">
                        <mxPoint x="151" y="263" as="sourcePoint"/>
                        <mxPoint x="543" y="263" as="targetPoint"/>
                        <Array as="points">
                            <mxPoint x="349" y="263"/>
                            <mxPoint x="398" y="263"/>
                        </Array>
                    </mxGeometry>
                </mxCell>
                <mxCell id="8" value="&lt;font style=&quot;font-size: 14px&quot;&gt;服务器&lt;br&gt;B&lt;/font&gt;" style="text;html=1;align=center;verticalAlign=middle;resizable=0;points=[];autosize=1;fontColor=#007FFF;labelBackgroundColor=none;" parent="1" vertex="1">
                    <mxGeometry x="494" y="120" width="52" height="34" as="geometry"/>
                </mxCell>
                <mxCell id="10" value="&lt;b&gt;ESTAB-LISHED&lt;/b&gt;" style="rounded=0;whiteSpace=wrap;html=1;sketch=0;strokeColor=#2D7600;fontColor=#007FFF;fillColor=#3B690E;labelBackgroundColor=none;" parent="1" vertex="1">
                    <mxGeometry x="151" y="278" width="78" height="60" as="geometry"/>
                </mxCell>
                <mxCell id="11" value="&lt;b&gt;ESTAB-LISHED&lt;/b&gt;" style="rounded=0;whiteSpace=wrap;html=1;sketch=0;strokeColor=#2D7600;fontColor=#007FFF;fillColor=#3B690E;labelBackgroundColor=none;" parent="1" vertex="1">
                    <mxGeometry x="465" y="278" width="78" height="106" as="geometry"/>
                </mxCell>
                <mxCell id="13" value="" style="endArrow=classic;html=1;exitX=1;exitY=1;exitDx=0;exitDy=0;entryX=0;entryY=1;entryDx=0;entryDy=0;strokeWidth=2;fontColor=#007FFF;strokeColor=#007FFF;labelBackgroundColor=none;" parent="1" source="10" target="11" edge="1">
                    <mxGeometry width="50" height="50" relative="1" as="geometry">
                        <mxPoint x="282" y="381" as="sourcePoint"/>
                        <mxPoint x="332" y="331" as="targetPoint"/>
                    </mxGeometry>
                </mxCell>
                <mxCell id="14" value="&lt;font style=&quot;font-size: 14px&quot;&gt;FIN=1, seq=u&lt;/font&gt;" style="edgeLabel;html=1;align=center;verticalAlign=middle;resizable=0;points=[];rotation=10;fontColor=#007FFF;labelBackgroundColor=none;" parent="13" vertex="1" connectable="0">
                    <mxGeometry x="-0.0154" y="-1" relative="1" as="geometry">
                        <mxPoint x="4.34" y="-17.67" as="offset"/>
                    </mxGeometry>
                </mxCell>
                <mxCell id="15" value="&lt;font style=&quot;font-size: 16px&quot;&gt;数据传送&lt;/font&gt;" style="shape=flexArrow;endArrow=classic;startArrow=classic;html=1;fontColor=#007FFF;labelBackgroundColor=none;fillColor=#FF0000;strokeColor=none;" parent="1" edge="1">
                    <mxGeometry width="50" height="50" relative="1" as="geometry">
                        <mxPoint x="287" y="307.5" as="sourcePoint"/>
                        <mxPoint x="407" y="307.5" as="targetPoint"/>
                    </mxGeometry>
                </mxCell>
                <mxCell id="17" value="&lt;b&gt;FIN-WAIT-1&lt;/b&gt;" style="rounded=0;whiteSpace=wrap;html=1;sketch=0;strokeColor=#C73500;fontColor=#007FFF;fillColor=#9C4100;labelBackgroundColor=none;" parent="1" vertex="1">
                    <mxGeometry x="151" y="345" width="78" height="108" as="geometry"/>
                </mxCell>
                <mxCell id="77" style="edgeStyle=orthogonalEdgeStyle;rounded=0;orthogonalLoop=1;jettySize=auto;html=1;exitX=1;exitY=0;exitDx=0;exitDy=0;entryX=1;entryY=0.75;entryDx=0;entryDy=0;labelBackgroundColor=none;strokeColor=#007FFF;strokeWidth=2;fillColor=#FF0000;fontSize=16;fontColor=#007FFF;" parent="1" source="18" edge="1">
                    <mxGeometry relative="1" as="geometry">
                        <Array as="points">
                            <mxPoint x="605" y="390"/>
                            <mxPoint x="605" y="216"/>
                        </Array>
                        <mxPoint x="543" y="216" as="targetPoint"/>
                    </mxGeometry>
                </mxCell>
                <mxCell id="78" value="通知&lt;br&gt;应用&lt;br&gt;程序" style="edgeLabel;html=1;align=center;verticalAlign=middle;resizable=0;points=[];fontSize=16;fontColor=#007FFF;labelBackgroundColor=none;" parent="77" vertex="1" connectable="0">
                    <mxGeometry x="-0.1484" y="-2" relative="1" as="geometry">
                        <mxPoint x="-32" y="29" as="offset"/>
                    </mxGeometry>
                </mxCell>
                <mxCell id="18" value="&lt;b&gt;CLOSE-&lt;br&gt;WAIT&lt;/b&gt;" style="rounded=0;whiteSpace=wrap;html=1;sketch=0;fillColor=#6a00ff;strokeColor=#3700CC;fontColor=#007FFF;labelBackgroundColor=none;" parent="1" vertex="1">
                    <mxGeometry x="465" y="390" width="78" height="91" as="geometry"/>
                </mxCell>
                <mxCell id="20" value="" style="endArrow=classic;html=1;strokeWidth=2;entryX=1;entryY=1;entryDx=0;entryDy=0;fontColor=#007FFF;strokeColor=#007FFF;labelBackgroundColor=none;" parent="1" target="17" edge="1">
                    <mxGeometry width="50" height="50" relative="1" as="geometry">
                        <mxPoint x="465" y="385" as="sourcePoint"/>
                        <mxPoint x="351" y="434" as="targetPoint"/>
                    </mxGeometry>
                </mxCell>
                <mxCell id="21" value="&lt;font style=&quot;font-size: 16px&quot;&gt;ACK=1, seq=v, ack=u+1&lt;/font&gt;" style="edgeLabel;html=1;align=center;verticalAlign=middle;resizable=0;points=[];rotation=-15;labelBackgroundColor=none;fontColor=#007FFF;" parent="20" vertex="1" connectable="0">
                    <mxGeometry x="0.1282" relative="1" as="geometry">
                        <mxPoint x="2.33" y="-15.59" as="offset"/>
                    </mxGeometry>
                </mxCell>
                <mxCell id="33" style="edgeStyle=orthogonalEdgeStyle;rounded=0;orthogonalLoop=1;jettySize=auto;html=1;exitX=0;exitY=1;exitDx=0;exitDy=0;entryX=0;entryY=0;entryDx=0;entryDy=0;strokeWidth=2;fontColor=#007FFF;strokeColor=#007FFF;labelBackgroundColor=none;" parent="1" edge="1">
                    <mxGeometry relative="1" as="geometry">
                        <mxPoint x="149" y="559" as="sourcePoint"/>
                        <mxPoint x="149" y="652" as="targetPoint"/>
                        <Array as="points">
                            <mxPoint x="36" y="559"/>
                            <mxPoint x="36" y="652"/>
                        </Array>
                    </mxGeometry>
                </mxCell>
                <mxCell id="34" value="必须等待2MSL" style="edgeLabel;html=1;align=center;verticalAlign=middle;resizable=0;points=[];fontSize=14;fontColor=#007FFF;labelBackgroundColor=none;" parent="33" vertex="1" connectable="0">
                    <mxGeometry x="0.0041" y="-1" relative="1" as="geometry">
                        <mxPoint x="55" y="-32" as="offset"/>
                    </mxGeometry>
                </mxCell>
                <mxCell id="22" value="&lt;b&gt;FIN-WAIT-2&lt;/b&gt;" style="rounded=0;whiteSpace=wrap;html=1;sketch=0;fillColor=#f0a30a;strokeColor=#BD7000;fontColor=#007FFF;labelBackgroundColor=none;" parent="1" vertex="1">
                    <mxGeometry x="151" y="460" width="78" height="99" as="geometry"/>
                </mxCell>
                <mxCell id="23" value="" style="endArrow=classic;html=1;strokeWidth=2;entryX=1;entryY=1;entryDx=0;entryDy=0;exitX=0;exitY=1;exitDx=0;exitDy=0;fontColor=#007FFF;strokeColor=#007FFF;labelBackgroundColor=none;" parent="1" source="18" target="22" edge="1">
                    <mxGeometry width="50" height="50" relative="1" as="geometry">
                        <mxPoint x="410" y="435" as="sourcePoint"/>
                        <mxPoint x="358" y="472" as="targetPoint"/>
                    </mxGeometry>
                </mxCell>
                <mxCell id="24" value="&lt;font style=&quot;font-size: 16px&quot;&gt;FIN=1, ACK=1, seq=w, ack=u+1&lt;/font&gt;" style="edgeLabel;html=1;align=center;verticalAlign=middle;resizable=0;points=[];rotation=-20;fontColor=#007FFF;labelBackgroundColor=none;" parent="23" vertex="1" connectable="0">
                    <mxGeometry x="-0.0381" y="-2" relative="1" as="geometry">
                        <mxPoint x="-2.3000000000000007" y="-17.64" as="offset"/>
                    </mxGeometry>
                </mxCell>
                <mxCell id="26" value="&lt;b&gt;LAST-&lt;br&gt;ACK&lt;/b&gt;" style="rounded=0;whiteSpace=wrap;html=1;sketch=0;strokeColor=#A50040;fontColor=#007FFF;fillColor=#850047;labelBackgroundColor=none;" parent="1" vertex="1">
                    <mxGeometry x="465" y="487" width="78" height="106" as="geometry"/>
                </mxCell>
                <mxCell id="27" value="" style="endArrow=classic;html=1;strokeWidth=2;exitX=1;exitY=1;exitDx=0;exitDy=0;entryX=0;entryY=1;entryDx=0;entryDy=0;fontColor=#007FFF;strokeColor=#007FFF;labelBackgroundColor=none;" parent="1" source="22" target="26" edge="1">
                    <mxGeometry width="50" height="50" relative="1" as="geometry">
                        <mxPoint x="319" y="642" as="sourcePoint"/>
                        <mxPoint x="369" y="592" as="targetPoint"/>
                    </mxGeometry>
                </mxCell>
                <mxCell id="28" value="&lt;font style=&quot;font-size: 16px&quot;&gt;ACK=1, seq=u+1, ack=w+1&lt;/font&gt;" style="edgeLabel;html=1;align=center;verticalAlign=middle;resizable=0;points=[];rotation=10;fontColor=#007FFF;labelBackgroundColor=none;" parent="27" vertex="1" connectable="0">
                    <mxGeometry x="-0.331" relative="1" as="geometry">
                        <mxPoint x="37.81999999999999" y="22.590000000000003" as="offset"/>
                    </mxGeometry>
                </mxCell>
                <mxCell id="29" value="&lt;b&gt;TIMW-&lt;br&gt;WAIT&lt;/b&gt;" style="rounded=0;whiteSpace=wrap;html=1;sketch=0;strokeColor=#6D1F00;fontColor=#007FFF;fillColor=#804124;labelBackgroundColor=none;" parent="1" vertex="1">
                    <mxGeometry x="151" y="566" width="78" height="78" as="geometry"/>
                </mxCell>
                <mxCell id="30" value="&lt;b&gt;CLOSED&lt;/b&gt;" style="rounded=0;whiteSpace=wrap;html=1;sketch=0;fillColor=#ffcc99;strokeColor=#36393d;fontColor=#007FFF;labelBackgroundColor=none;" parent="1" vertex="1">
                    <mxGeometry x="465" y="599" width="78" height="53" as="geometry"/>
                </mxCell>
                <mxCell id="31" value="&lt;b&gt;CLOSED&lt;/b&gt;" style="rounded=0;whiteSpace=wrap;html=1;sketch=0;fillColor=#ffcc99;strokeColor=#36393d;fontColor=#007FFF;labelBackgroundColor=none;" parent="1" vertex="1">
                    <mxGeometry x="151" y="652" width="78" height="53" as="geometry"/>
                </mxCell>
                <mxCell id="36" value="" style="html=1;verticalLabelPosition=bottom;align=center;labelBackgroundColor=none;verticalAlign=top;strokeWidth=2;strokeColor=#0080F0;shadow=0;dashed=0;shape=mxgraph.ios7.icons.clock;sketch=0;fontSize=14;fontColor=#007FFF;fillColor=none;" parent="1" vertex="1">
                    <mxGeometry x="71" y="593" width="30" height="30" as="geometry"/>
                </mxCell>
                <mxCell id="37" value="&lt;b&gt;TCP连接必须经过时间2MIL后才真正释放掉&lt;/b&gt;" style="text;html=1;align=center;verticalAlign=middle;resizable=0;points=[];autosize=1;fontSize=14;fontColor=#007FFF;" parent="1" vertex="1">
                    <mxGeometry x="206" y="129.5" width="280" height="21" as="geometry"/>
                </mxCell>
                <mxCell id="38" value="" style="shape=flexArrow;endArrow=classic;html=1;labelBackgroundColor=none;strokeWidth=2;fontSize=14;fontColor=#007FFF;fillColor=#FF0000;strokeColor=none;" parent="1" edge="1">
                    <mxGeometry width="50" height="50" relative="1" as="geometry">
                        <mxPoint x="405" y="447" as="sourcePoint"/>
                        <mxPoint x="324" y="481" as="targetPoint"/>
                    </mxGeometry>
                </mxCell>
                <mxCell id="39" value="数据传送" style="edgeLabel;html=1;align=center;verticalAlign=middle;resizable=0;points=[];fontSize=16;fontColor=#007FFF;labelBackgroundColor=none;" parent="38" vertex="1" connectable="0">
                    <mxGeometry x="-0.1805" y="-2" relative="1" as="geometry">
                        <mxPoint as="offset"/>
                    </mxGeometry>
                </mxCell>
                <mxCell id="56" value="主动打开" style="edgeStyle=orthogonalEdgeStyle;rounded=0;orthogonalLoop=1;jettySize=auto;html=1;exitX=0;exitY=0.5;exitDx=0;exitDy=0;entryX=0;entryY=0.5;entryDx=0;entryDy=0;labelBackgroundColor=none;strokeColor=#007FFF;strokeWidth=2;fillColor=#FF0000;fontSize=16;fontColor=#007FFF;" parent="1" source="47" target="54" edge="1">
                    <mxGeometry x="0.7115" y="20" relative="1" as="geometry">
                        <Array as="points">
                            <mxPoint x="703" y="200"/>
                            <mxPoint x="703" y="303"/>
                        </Array>
                        <mxPoint x="1" y="1" as="offset"/>
                    </mxGeometry>
                </mxCell>
                <mxCell id="47" value="" style="image;html=1;image=img/lib/clip_art/computers/Workstation_128x128.png;fontColor=#007FFF;labelBackgroundColor=none;" parent="1" vertex="1">
                    <mxGeometry x="781" y="160" width="80" height="80" as="geometry"/>
                </mxCell>
                <mxCell id="48" value="&lt;font style=&quot;font-size: 14px&quot;&gt;客户&lt;br&gt;A&lt;/font&gt;" style="text;html=1;align=center;verticalAlign=middle;resizable=0;points=[];autosize=1;fontColor=#007FFF;labelBackgroundColor=none;" parent="1" vertex="1">
                    <mxGeometry x="779" y="121" width="38" height="34" as="geometry"/>
                </mxCell>
                <mxCell id="49" value="" style="endArrow=none;dashed=1;html=1;fontColor=#007FFF;labelBackgroundColor=none;strokeColor=#007FFF;" parent="1" edge="1">
                    <mxGeometry width="50" height="50" relative="1" as="geometry">
                        <mxPoint x="781" y="251" as="sourcePoint"/>
                        <mxPoint x="1173" y="251" as="targetPoint"/>
                        <Array as="points">
                            <mxPoint x="979" y="251"/>
                            <mxPoint x="1028" y="251"/>
                        </Array>
                    </mxGeometry>
                </mxCell>
                <mxCell id="71" style="edgeStyle=orthogonalEdgeStyle;rounded=0;orthogonalLoop=1;jettySize=auto;html=1;entryX=1;entryY=0;entryDx=0;entryDy=0;labelBackgroundColor=none;strokeColor=#007FFF;strokeWidth=2;fillColor=#FF0000;fontSize=16;fontColor=#007FFF;" parent="1" target="57" edge="1">
                    <mxGeometry relative="1" as="geometry">
                        <Array as="points">
                            <mxPoint x="1280" y="196"/>
                            <mxPoint x="1280" y="337"/>
                        </Array>
                        <mxPoint x="1201" y="196" as="sourcePoint"/>
                    </mxGeometry>
                </mxCell>
                <mxCell id="72" value="被动打开" style="edgeLabel;html=1;align=center;verticalAlign=middle;resizable=0;points=[];fontSize=16;fontColor=#007FFF;labelBackgroundColor=none;" parent="71" vertex="1" connectable="0">
                    <mxGeometry x="0.1508" relative="1" as="geometry">
                        <mxPoint x="-38" y="31" as="offset"/>
                    </mxGeometry>
                </mxCell>
                <mxCell id="51" value="" style="endArrow=none;dashed=1;html=1;fontColor=#007FFF;labelBackgroundColor=none;strokeColor=#007FFF;" parent="1" edge="1">
                    <mxGeometry width="50" height="50" relative="1" as="geometry">
                        <mxPoint x="781" y="261" as="sourcePoint"/>
                        <mxPoint x="1173" y="261" as="targetPoint"/>
                        <Array as="points">
                            <mxPoint x="979" y="261"/>
                            <mxPoint x="1028" y="261"/>
                        </Array>
                    </mxGeometry>
                </mxCell>
                <mxCell id="52" value="&lt;font style=&quot;font-size: 14px&quot;&gt;服务器&lt;br&gt;B&lt;/font&gt;" style="text;html=1;align=center;verticalAlign=middle;resizable=0;points=[];autosize=1;fontColor=#007FFF;labelBackgroundColor=none;" parent="1" vertex="1">
                    <mxGeometry x="1152" y="120" width="52" height="34" as="geometry"/>
                </mxCell>
                <mxCell id="54" value="&lt;b&gt;CLOSED&lt;/b&gt;" style="rounded=0;whiteSpace=wrap;html=1;sketch=0;fillColor=#ffcc99;strokeColor=#36393d;fontColor=#007FFF;labelBackgroundColor=none;" parent="1" vertex="1">
                    <mxGeometry x="779" y="276" width="78" height="53" as="geometry"/>
                </mxCell>
                <mxCell id="55" value="&lt;b&gt;CLOSED&lt;/b&gt;" style="rounded=0;whiteSpace=wrap;html=1;sketch=0;fillColor=#ffcc99;strokeColor=#36393d;fontColor=#007FFF;labelBackgroundColor=none;" parent="1" vertex="1">
                    <mxGeometry x="1126" y="278" width="78" height="53" as="geometry"/>
                </mxCell>
                <mxCell id="57" value="&lt;b&gt;LISTEN&lt;/b&gt;" style="rounded=0;whiteSpace=wrap;html=1;sketch=0;fillColor=#f8cecc;strokeColor=#b85450;labelBackgroundColor=none;" parent="1" vertex="1">
                    <mxGeometry x="1126" y="337" width="78" height="53" as="geometry"/>
                </mxCell>
                <mxCell id="59" value="" style="endArrow=classic;html=1;labelBackgroundColor=none;strokeColor=#007FFF;strokeWidth=2;fillColor=#FF0000;fontSize=16;fontColor=#007FFF;exitX=1;exitY=1;exitDx=0;exitDy=0;entryX=0;entryY=1;entryDx=0;entryDy=0;" parent="1" source="54" target="57" edge="1">
                    <mxGeometry width="50" height="50" relative="1" as="geometry">
                        <mxPoint x="928" y="378" as="sourcePoint"/>
                        <mxPoint x="978" y="328" as="targetPoint"/>
                    </mxGeometry>
                </mxCell>
                <mxCell id="67" value="SYN=1, seq=x" style="edgeLabel;html=1;align=center;verticalAlign=middle;resizable=0;points=[];fontSize=16;fontColor=#007FFF;rotation=15;labelBackgroundColor=none;" parent="59" vertex="1" connectable="0">
                    <mxGeometry x="-0.2199" relative="1" as="geometry">
                        <mxPoint x="29.78" y="-9.07" as="offset"/>
                    </mxGeometry>
                </mxCell>
                <mxCell id="60" value="&lt;b&gt;SYN-&lt;br&gt;SENT&lt;br&gt;&lt;/b&gt;" style="rounded=0;whiteSpace=wrap;html=1;sketch=0;strokeColor=#006EAF;fontColor=#ffffff;fillColor=#1ba1e2;labelBackgroundColor=none;" parent="1" vertex="1">
                    <mxGeometry x="779" y="336" width="78" height="108" as="geometry"/>
                </mxCell>
                <mxCell id="62" value="&lt;b&gt;SYN-&lt;br&gt;RCVD&lt;br&gt;&lt;/b&gt;" style="rounded=0;whiteSpace=wrap;html=1;sketch=0;strokeColor=#432D57;fontColor=#ffffff;fillColor=#76608a;labelBackgroundColor=none;" parent="1" vertex="1">
                    <mxGeometry x="1126" y="396" width="78" height="108" as="geometry"/>
                </mxCell>
                <mxCell id="64" value="" style="endArrow=classic;html=1;labelBackgroundColor=none;strokeColor=#007FFF;strokeWidth=2;fillColor=#FF0000;fontSize=16;fontColor=#007FFF;exitX=1;exitY=1;exitDx=0;exitDy=0;entryX=0;entryY=1;entryDx=0;entryDy=0;" parent="1" source="60" target="62" edge="1">
                    <mxGeometry width="50" height="50" relative="1" as="geometry">
                        <mxPoint x="975" y="518" as="sourcePoint"/>
                        <mxPoint x="1025" y="468" as="targetPoint"/>
                    </mxGeometry>
                </mxCell>
                <mxCell id="70" value="ACK=1,seq=x+1,ack=y+1" style="edgeLabel;html=1;align=center;verticalAlign=middle;resizable=0;points=[];fontSize=16;fontColor=#007FFF;rotation=15;labelBackgroundColor=none;" parent="64" vertex="1" connectable="0">
                    <mxGeometry x="-0.2917" y="-2" relative="1" as="geometry">
                        <mxPoint x="55.91" y="-4.54" as="offset"/>
                    </mxGeometry>
                </mxCell>
                <mxCell id="66" value="&lt;b&gt;ESTAB-LISHED&lt;/b&gt;" style="rounded=0;whiteSpace=wrap;html=1;sketch=0;strokeColor=#2D7600;fontColor=#007FFF;fillColor=#3B690E;labelBackgroundColor=none;" parent="1" vertex="1">
                    <mxGeometry x="1126" y="510" width="78" height="120" as="geometry"/>
                </mxCell>
                <mxCell id="68" value="" style="endArrow=classic;html=1;labelBackgroundColor=none;strokeColor=#007FFF;strokeWidth=2;fillColor=#FF0000;fontSize=16;fontColor=#007FFF;exitX=0;exitY=1;exitDx=0;exitDy=0;entryX=1;entryY=1;entryDx=0;entryDy=0;" parent="1" source="57" target="60" edge="1">
                    <mxGeometry width="50" height="50" relative="1" as="geometry">
                        <mxPoint x="946" y="451" as="sourcePoint"/>
                        <mxPoint x="996" y="401" as="targetPoint"/>
                    </mxGeometry>
                </mxCell>
                <mxCell id="69" value="SYN=1,ACK=1,seq=y,ack=x+1" style="edgeLabel;html=1;align=center;verticalAlign=middle;resizable=0;points=[];fontSize=16;fontColor=#007FFF;rotation=-15;labelBackgroundColor=none;" parent="68" vertex="1" connectable="0">
                    <mxGeometry x="-0.2844" y="1" relative="1" as="geometry">
                        <mxPoint x="-43.11000000000001" y="-11.270000000000001" as="offset"/>
                    </mxGeometry>
                </mxCell>
                <mxCell id="79" value="&lt;b&gt;ESTAB-LISHED&lt;/b&gt;" style="rounded=0;whiteSpace=wrap;html=1;sketch=0;strokeColor=#2D7600;fontColor=#007FFF;fillColor=#3B690E;labelBackgroundColor=none;" parent="1" vertex="1">
                    <mxGeometry x="779" y="449.5" width="78" height="183.5" as="geometry"/>
                </mxCell>
                <mxCell id="80" value="" style="image;html=1;image=img/lib/clip_art/computers/Server_Tower_128x128.png" vertex="1" parent="1">
                    <mxGeometry x="466" y="157" width="80" height="80" as="geometry"/>
                </mxCell>
                <mxCell id="81" value="" style="image;html=1;image=img/lib/clip_art/computers/Server_Tower_128x128.png" vertex="1" parent="1">
                    <mxGeometry x="1121" y="160" width="80" height="80" as="geometry"/>
                </mxCell>
                <mxCell id="82" value="" style="image;html=1;image=img/lib/clip_art/computers/Workstation_128x128.png;fontColor=#007FFF;labelBackgroundColor=none;" vertex="1" parent="1">
                    <mxGeometry x="161" y="172" width="80" height="80" as="geometry"/>
                </mxCell>
                <mxCell id="83" value="" style="image;html=1;image=img/lib/clip_art/computers/Server_Tower_128x128.png" vertex="1" parent="1">
                    <mxGeometry x="476" y="167" width="80" height="80" as="geometry"/>
                </mxCell>
                <mxCell id="85" value="&lt;font style=&quot;font-size: 14px&quot;&gt;客户&lt;br&gt;A&lt;/font&gt;" style="text;html=1;align=center;verticalAlign=middle;resizable=0;points=[];autosize=1;fontColor=#007FFF;labelBackgroundColor=none;" vertex="1" parent="1">
                    <mxGeometry x="142.5" y="753" width="38" height="34" as="geometry"/>
                </mxCell>
                <mxCell id="86" value="" style="image;html=1;image=img/lib/clip_art/computers/Workstation_128x128.png;fontColor=#007FFF;labelBackgroundColor=none;" vertex="1" parent="1">
                    <mxGeometry x="154.5" y="802" width="80" height="80" as="geometry"/>
                </mxCell>
                <mxCell id="87" value="" style="image;html=1;image=img/lib/clip_art/computers/Server_Tower_128x128.png" vertex="1" parent="1">
                    <mxGeometry x="469.5" y="797" width="80" height="80" as="geometry"/>
                </mxCell>
                <mxCell id="88" value="&lt;font style=&quot;font-size: 14px&quot;&gt;服务器&lt;br&gt;B&lt;/font&gt;" style="text;html=1;align=center;verticalAlign=middle;resizable=0;points=[];autosize=1;fontColor=#007FFF;labelBackgroundColor=none;" vertex="1" parent="1">
                    <mxGeometry x="487.5" y="750" width="52" height="34" as="geometry"/>
                </mxCell>
                <mxCell id="91" value="" style="endArrow=classic;html=1;strokeColor=#007FFF;strokeWidth=2;" edge="1" parent="1">
                    <mxGeometry width="50" height="50" relative="1" as="geometry">
                        <mxPoint x="194" y="911" as="sourcePoint"/>
                        <mxPoint x="512" y="945" as="targetPoint"/>
                    </mxGeometry>
                </mxCell>
                <mxCell id="92" value="" style="endArrow=classic;html=1;strokeColor=#007FFF;strokeWidth=2;" edge="1" parent="1">
                    <mxGeometry width="50" height="50" relative="1" as="geometry">
                        <mxPoint x="511" y="944" as="sourcePoint"/>
                        <mxPoint x="195" y="992" as="targetPoint"/>
                    </mxGeometry>
                </mxCell>
                <mxCell id="94" value="" style="endArrow=classic;html=1;strokeColor=#007FFF;strokeWidth=2;" edge="1" parent="1">
                    <mxGeometry width="50" height="50" relative="1" as="geometry">
                        <mxPoint x="194" y="992" as="sourcePoint"/>
                        <mxPoint x="512" y="1026" as="targetPoint"/>
                    </mxGeometry>
                </mxCell>
                <mxCell id="96" value="" style="rounded=0;whiteSpace=wrap;html=1;rotation=-10;fillColor=#0050ef;fontColor=#ffffff;strokeColor=none;" vertex="1" parent="1">
                    <mxGeometry x="193.48" y="1054.69" width="318.74" height="27" as="geometry"/>
                </mxCell>
                <mxCell id="97" value="" style="shape=flexArrow;endArrow=classic;html=1;strokeColor=#007FFF;strokeWidth=2;endWidth=7;endSize=5.55;" edge="1" parent="1">
                    <mxGeometry width="50" height="50" relative="1" as="geometry">
                        <mxPoint x="369.5" y="1065" as="sourcePoint"/>
                        <mxPoint x="307" y="1077.31" as="targetPoint"/>
                    </mxGeometry>
                </mxCell>
                <mxCell id="98" value="&lt;font style=&quot;font-size: 16px&quot; color=&quot;#007fff&quot;&gt;HTTP响应报文&lt;/font&gt;" style="text;html=1;align=center;verticalAlign=middle;resizable=0;points=[];autosize=1;rotation=-10;" vertex="1" parent="1">
                    <mxGeometry x="272" y="1035.69" width="116" height="19" as="geometry"/>
                </mxCell>
                <mxCell id="99" value="" style="endArrow=classic;startArrow=classic;html=1;strokeColor=#007FFF;strokeWidth=2;" edge="1" parent="1">
                    <mxGeometry width="50" height="50" relative="1" as="geometry">
                        <mxPoint x="157" y="995" as="sourcePoint"/>
                        <mxPoint x="157" y="909" as="targetPoint"/>
                    </mxGeometry>
                </mxCell>
                <mxCell id="100" value="" style="endArrow=classic;html=1;strokeColor=#007FFF;strokeWidth=2;" edge="1" parent="1">
                    <mxGeometry width="50" height="50" relative="1" as="geometry">
                        <mxPoint x="127" y="910" as="sourcePoint"/>
                        <mxPoint x="195" y="910" as="targetPoint"/>
                    </mxGeometry>
                </mxCell>
                <mxCell id="105" value="&lt;font color=&quot;#007fff&quot; style=&quot;font-size: 16px&quot;&gt;RTT&lt;/font&gt;" style="text;html=1;align=center;verticalAlign=middle;resizable=0;points=[];autosize=1;" vertex="1" parent="1">
                    <mxGeometry x="113.5" y="942" width="41" height="19" as="geometry"/>
                </mxCell>
                <mxCell id="109" value="" style="endArrow=classic;startArrow=classic;html=1;strokeColor=#007FFF;strokeWidth=2;" edge="1" parent="1">
                    <mxGeometry width="50" height="50" relative="1" as="geometry">
                        <mxPoint x="157" y="1081.69" as="sourcePoint"/>
                        <mxPoint x="157" y="995.69" as="targetPoint"/>
                    </mxGeometry>
                </mxCell>
                <mxCell id="110" value="&lt;font color=&quot;#007fff&quot; style=&quot;font-size: 16px&quot;&gt;RTT&lt;/font&gt;" style="text;html=1;align=center;verticalAlign=middle;resizable=0;points=[];autosize=1;" vertex="1" parent="1">
                    <mxGeometry x="113.5" y="1028.69" width="41" height="19" as="geometry"/>
                </mxCell>
                <mxCell id="112" value="发起HTTP请求" style="text;html=1;align=center;verticalAlign=middle;resizable=0;points=[];autosize=1;fontColor=#007FFF;fontSize=14;" vertex="1" parent="1">
                    <mxGeometry x="18.5" y="899" width="103" height="21" as="geometry"/>
                </mxCell>
                <mxCell id="113" value="HTTP请求报文" style="text;html=1;align=center;verticalAlign=middle;resizable=0;points=[];autosize=1;fontColor=#007FFF;fontSize=14;" vertex="1" parent="1">
                    <mxGeometry x="18.5" y="977" width="103" height="21" as="geometry"/>
                </mxCell>
                <mxCell id="114" value="" style="endArrow=classic;html=1;strokeColor=#007FFF;strokeWidth=2;" edge="1" parent="1">
                    <mxGeometry width="50" height="50" relative="1" as="geometry">
                        <mxPoint x="125.48" y="995" as="sourcePoint"/>
                        <mxPoint x="193.48" y="995" as="targetPoint"/>
                    </mxGeometry>
                </mxCell>
                <mxCell id="115" value="" style="endArrow=classic;html=1;strokeColor=#007FFF;strokeWidth=2;" edge="1" parent="1">
                    <mxGeometry width="50" height="50" relative="1" as="geometry">
                        <mxPoint x="125.48000000000002" y="1081.69" as="sourcePoint"/>
                        <mxPoint x="193.48000000000002" y="1081.69" as="targetPoint"/>
                    </mxGeometry>
                </mxCell>
                <mxCell id="116" value="" style="endArrow=classic;html=1;strokeColor=#007FFF;strokeWidth=2;" edge="1" parent="1">
                    <mxGeometry width="50" height="50" relative="1" as="geometry">
                        <mxPoint x="125.48000000000002" y="1108" as="sourcePoint"/>
                        <mxPoint x="193.48000000000002" y="1108" as="targetPoint"/>
                    </mxGeometry>
                </mxCell>
                <mxCell id="117" value="整个文档收到" style="text;html=1;align=center;verticalAlign=middle;resizable=0;points=[];autosize=1;fontColor=#007FFF;fontSize=14;" vertex="1" parent="1">
                    <mxGeometry x="25.5" y="1098" width="94" height="21" as="geometry"/>
                </mxCell>
                <mxCell id="118" value="" style="shape=curlyBracket;whiteSpace=wrap;html=1;rounded=1;rotation=-180;strokeWidth=2;strokeColor=#007FFF;" vertex="1" parent="1">
                    <mxGeometry x="512.22" y="1024" width="20" height="31" as="geometry"/>
                </mxCell>
                <mxCell id="120" value="文档传输时间" style="text;html=1;align=center;verticalAlign=middle;resizable=0;points=[];autosize=1;fontColor=#007FFF;fontSize=14;" vertex="1" parent="1">
                    <mxGeometry x="538.22" y="1029.69" width="94" height="21" as="geometry"/>
                </mxCell>
                <mxCell id="121" value="" style="endArrow=classic;html=1;strokeColor=#007FFF;strokeWidth=2;fontSize=14;fontColor=#007FFF;" edge="1" parent="1">
                    <mxGeometry width="50" height="50" relative="1" as="geometry">
                        <mxPoint x="193.48" y="895" as="sourcePoint"/>
                        <mxPoint x="193.48" y="1174" as="targetPoint"/>
                    </mxGeometry>
                </mxCell>
                <mxCell id="122" value="" style="endArrow=classic;html=1;strokeColor=#007FFF;strokeWidth=2;fontSize=14;fontColor=#007FFF;" edge="1" parent="1">
                    <mxGeometry width="50" height="50" relative="1" as="geometry">
                        <mxPoint x="513" y="896" as="sourcePoint"/>
                        <mxPoint x="513" y="1175" as="targetPoint"/>
                    </mxGeometry>
                </mxCell>
            </root>
        </mxGraphModel>
    </diagram>
</mxfile>